<?xml version="1.0" encoding="UTF-8"?><svg id="Calque_7" xmlns="http://www.w3.org/2000/svg" viewBox="0 0 5000 5000"><defs><style>.cls-1{fill:#fff;}.cls-2{fill:none;stroke:#fff;stroke-miterlimit:10;stroke-width:11px;}</style></defs><text/><g><path class="cls-2" d="M1364.37,2185.85c-61.6-3.27-257.96-22.04-277.45,50.13,.93,64.52,110.97,78.87,160.65,91.6,54.11,20.01,564.73,65.38,467.17-66.36-85.49-53.06-192.92-59.03-290.28-75.39"/><polygon class="cls-2" points="208 1233.36 208 2256.48 509.75 2310.7 509.75 1160.28 208 1233.36"/><polygon class="cls-2" points="509.75 1160.28 804.42 1254.58 787.92 1275.8 509.75 1188.57 509.75 1160.28"/><polygon class="cls-2" points="231.57 1443.17 231.57 1513.9 462.6 1478.53 462.6 1393.67 231.57 1443.17"/><polygon class="cls-2" points="232.08 1558.9 229.32 1629.57 461.55 1603.25 464.86 1518.45 232.08 1558.9"/><line class="cls-2" x1="523.97" y1="1193.03" x2="523.97" y2="2277.04"/><polygon class="cls-2" points="509.75 2282.41 865.72 2148.04 865.72 2086.75 896.36 2086.75 896.36 2159.83 509.75 2310.7 509.75 2282.41"/><polyline class="cls-2" points="1364.39 2096.78 1424.43 2105.53 1424.43 2185.76 1364.39 2185.76 1364.39 2096.78"/><path class="cls-2" d="M745.85,1394.68c-5.63,89.6-.04,180.62-3.4,270.51-.73,77.79-1.11,155.6-1.13,233.4,0,60.12,8.23,108.38,76.4,118.56,88.95,12.95,1154.11,168.12,1154.11,168.12,0,0,112.49,14.06,113.64-108.52,3.69-310.01-5.67-620.1,3.65-930.03,1.32-37.88-7.16-80.14-37.92-102.3-79.19-54.58-278.98,33.38-375.69,46-261.8,60.65-522.86,124.46-783.82,188.56-64.45,11.14-139.31,40.56-145.83,115.7Z"/><path class="cls-2" d="M800.75,1418.5c-4.99,79.48-.03,160.21-3.01,239.95-.65,69.01-.99,138.02-1,207.03-.01,53.33,7.3,96.14,67.77,105.16,78.9,11.49,1023.72,149.13,1023.72,149.13,0,0,99.79,12.48,100.8-96.26,3.27-274.99-5.02-550.05,3.24-824.97,1.17-33.6-6.35-71.09-33.63-90.74-70.24-48.42-247.46,29.6-333.25,40.79-232.22,53.8-463.79,110.4-695.28,167.26-57.17,9.88-123.57,35.98-129.35,102.63Z"/><g><g><path class="cls-2" d="M1391.86,1403.76c-256.95,2.9-319.57,407.03-37.11,424.17"/><path class="cls-2" d="M1354.75,1827.93c256.93-2.7,319.5-406.99,37.11-424.17-110.7,94.31-140.26,316.85-37.11,424.17Z"/><path class="cls-2" d="M1391.86,1403.76c110.55,108.26,79.36,330.36-37.11,424.17"/><line class="cls-2" x1="1166.26" y1="1618.7" x2="1579.85" y2="1618.7"/><path class="cls-2" d="M1222.01,1771.64c66.97-62.41,211.89-68.17,275.33,0"/><path class="cls-2" d="M1525.03,1455.2c-66.97,62.41-211.89,68.17-275.33,0"/></g><g><path class="cls-1" d="M1512.1,1514.81c.41,0,.82,0,1.22,0h17.08c3.6,.22,4.24,5.25,4.7,8.46,1.2,8.5-.62,20.98-2.77,26.45-1.39,4.97-5.45,5.68-9.63,5.68-1.68,0-3.38-.12-4.94-.12-.41,0-.81,0-1.19,.03-3.81,34.43-8.81,85.58-12.61,120,.07,0,.14,0,.22,0,1.83,0,4.46-.12,7.18-.12,4.59,0,9.44,.35,11.16,2.24,2.87,7.85,3.92,37.33-7.12,39.9-1.86,0-3.82-.01-5.86-.01-18.62,0-43.92,.33-62.57,.33-2.08,0-4.07,0-5.96-.01-.19,.03-.37,.05-.54,.05-6.66,0-3.06-24.68-2.28-29.98,1.28-11.5,10.4-10.46,20.63-11.18,1.84-40.42,5.53-79.66,8.99-120h-8.77c-13.3-.5-9-17.95-8.2-27.2,1.69-12.63,5.24-14.43,11.98-14.43,2.68,0,5.85,.28,9.61,.28,.94,0,1.91-.02,2.92-.06,.46,0,.92,0,1.39,0,11.54,0,23.85-.31,35.35-.31m0-11c-5.81,0-11.9,.08-17.78,.15-5.83,.07-11.86,.15-17.57,.15h-1.87c-.79,.04-1.59,.06-2.45,.06-1.8,0-3.49-.08-5.13-.15-1.55-.07-3.02-.13-4.48-.13-2.79,0-10.21,0-15.83,5.87-3.78,3.94-5.89,9.36-7.06,18.1l-.03,.25-.02,.26c-.09,1.08-.26,2.42-.43,3.84-1.06,8.6-2.52,20.38,4.41,28.53,2.18,2.56,5.95,5.59,11.98,6.52-.17,1.96-.34,3.93-.51,5.89-2.75,31.72-5.37,61.86-7.02,93.07-3.07,.36-6.13,1.02-9.06,2.39-4.78,2.23-10.72,7.1-11.97,17.67-3.79,25.72-.83,33.3,2.93,37.66,2.64,3.06,6.29,4.75,10.26,4.75,.38,0,.77-.02,1.15-.05,1.71,0,3.5,.01,5.35,.01,9.37,0,20.56-.08,31.39-.16,10.77-.08,21.92-.16,31.18-.16,2.02,0,3.96,0,5.81,.01h1.29l1.26-.29c3.71-.86,8.91-3.35,12.66-10.27,6.82-12.6,5.36-35.73,2.29-44.12l-.74-2.03-1.46-1.6c-3.62-3.98-8.87-5.29-14.43-5.68,1.58-14.72,3.3-31.45,4.98-47.76,1.78-17.29,3.61-35.07,5.26-50.4,10.87-1.31,14.85-8.26,16.3-12.93,2.71-7.29,4.69-21.15,3.24-31.52l-.03-.21c-.28-1.98-.71-4.98-1.89-7.88-2.37-5.8-7.24-9.47-13.01-9.82l-.33-.02h-18.64Z"/><path class="cls-1" d="M1604.99,1512.81c45.8,0,90.02,9.54,83.27,70.31-3.16,52.57-40.73,77.13-89.59,77.13-1.29,0-2.59-.02-3.9-.05-1.63,14.75-1.62,32.49-5.35,47.31-1.76,12.2-14.93,11.14-24.04,12.24-7.87-.72-22.96,1.67-23.41-7.1-.67-16.67,1.27-33.89,2.26-50.03,2.47-29.28,4.91-60.45,7-90.38,1.28-15.6,2.43-33.75,4.58-47.16,1.14-7.76,9.11-9.94,16.24-11.18,10.6-.53,21.82-1.09,32.95-1.09m1.46,106.32c8.41,0,16.62-1.89,23.29-8.05,14.05-11.44,16.77-46.77-6.49-51.99-2.67-.59-8.92-1.99-14.14-1.99-3.8,0-7.06,.73-8.01,3.04-1.74,19.56-2.46,38.91-3.9,58.34,3.07,.39,6.17,.64,9.25,.64m-1.46-117.32v0c-11.33,0-22.5,.56-33.3,1.1h-.2l-.67,.04-.66,.12c-5.64,.98-22.77,3.96-25.23,20.34-1.81,11.29-2.9,25.29-3.95,38.84-.24,3.09-.48,6.14-.72,9.1v.13c-2,28.47-4.42,59.67-7,90.22v.13l-.02,.13c-.25,3.99-.55,7.99-.86,12.22-.95,12.69-1.94,25.82-1.41,38.92v.13c.41,7.88,5.7,13.9,14.15,16.11,4.69,1.22,9.77,1.24,14.25,1.26,1.93,0,3.76,.02,5,.13l1.16,.11,1.16-.14c1.14-.14,2.46-.24,3.86-.36,4.72-.38,10.6-.85,15.94-3.14,7.51-3.21,12.36-9.41,13.72-17.49,2.67-10.88,3.5-22.57,4.29-33.87,.11-1.59,.22-3.16,.34-4.69,24.99-1.02,46.55-8.27,62.63-21.14,19.03-15.22,30.01-38.01,31.75-65.93,2.68-24.56-2.2-43.97-14.49-57.7-19.48-21.76-52.85-24.55-79.74-24.55h0Zm3.94,106.24c.28-4.37,.53-8.72,.78-12.99,.52-8.8,1.05-17.85,1.75-26.84,3.61,.32,7.67,1.22,9.4,1.61,2.68,.6,6.45,2.19,8.05,8.98,2.12,9.01-1.48,19.97-6.11,23.75l-.26,.21-.25,.23c-3.33,3.07-7.61,4.7-13.34,5.06h0Z"/></g></g></g><g><path class="cls-2" d="M2209.65,1764.55h-34.96v-213.32h34.96v213.32Z"/><path class="cls-2" d="M2247.57,1764.55v-148.14h34.96v16c10.96-11.56,26.96-18.96,44.44-18.96,77.25-1.73,55.24,101.57,58.07,151.1h-34.96v-81.77c0-24.89-13.04-36.44-31.7-36.44-20.15,0-35.85,14.81-35.85,38.22v80h-34.96Z"/><path class="cls-2" d="M2406.96,1651.37v-34.96h24.89c-3.73-51.61,26.52-71.93,71.4-68.14v33.78c-24.74-1.62-38.39,4.22-36.44,34.37h36.44v34.96h-36.44v113.18h-34.96v-113.18h-24.89Z"/><path class="cls-2" d="M2665.32,1690.48c-1.74,101.2-152.14,101.22-154.07,0,.52-100.79,153.75-100.73,154.07,0Zm-77.03,42.07c55.26-1.1,55.25-83.05,0-84.14-55.26,1.1-55.25,83.05,0,84.14Z"/><path class="cls-2" d="M2690.81,1764.55v-148.14h34.96v16.89c10.07-11.85,25.48-19.85,44.44-19.85v33.18c-64.62-3.76-39.92,79.24-44.44,117.92h-34.96Z"/><path class="cls-2" d="M2792.73,1616.41h34.96v16c23.65-27.56,78.32-24.59,94.22,8.89,31.64-48,114.19-30.89,110.81,34.07v89.18h-34.96v-81.77c0-24.89-13.04-36.44-31.7-36.44-20.15,0-35.85,14.81-35.85,37.63v80.59h-34.96v-81.77c0-24.89-13.04-36.44-31.7-36.44-20.15,0-35.85,14.81-35.85,38.22v80h-34.96v-148.14Z"/><path class="cls-2" d="M3131.67,1613.45c18.67,0,35.85,9.78,45.63,21.33v-18.37h34.96v148.14h-34.96v-18.96c-9.78,12.15-26.96,21.92-45.63,21.92-96.53,.21-96.51-154.29,0-154.07Zm-38.52,77.03c1.1,55.26,83.05,55.25,84.14,0-1.1-55.26-83.05-55.25-84.14,0Z"/><path class="cls-2" d="M3247.81,1616.41c19.51,.47,11.47-28.06,13.04-39.7h34.96v39.7h37.63v34.96h-37.63v53.03c-1.96,35.13,15.19,30.81,37.63,26.96v33.18c-89.31,19.99-70.99-52.39-72.59-113.18h-27.26v-34.96h14.22Z"/><path class="cls-2" d="M3378.77,1548.27c27.28,.22,26.99,41.63,0,41.77-26.99-.15-27.28-41.56,0-41.77Zm-17.48,216.28v-148.14h34.96v148.14h-34.96Z"/><path class="cls-2" d="M3495.21,1613.45c18.67,0,35.85,9.78,45.63,21.92v-18.96h34.96v213.32h-34.96v-83.85c-9.78,11.85-26.96,21.63-45.63,21.63-96.57,.23-96.5-154.5,0-154.07Zm-38.52,77.03c1.1,55.26,83.05,55.25,84.14,0-1.1-55.26-83.05-55.25-84.14,0Z"/><path class="cls-2" d="M3645.12,1616.41v81.77c0,24.59,13.04,36.44,31.7,36.44,53.93,.4,31.42-85.11,35.85-118.22h34.96v148.14h-34.96v-16c-10.96,11.56-26.96,18.96-44.44,18.96-77.25,1.74-55.24-101.57-58.07-151.1h34.96Z"/><path class="cls-2" d="M3848.66,1613.45c49.15-1.29,78.48,44.91,69.33,92.74h-110.22c8.36,32.44,59.67,39.32,81.18,14.81l22.22,22.22c-43.97,50.03-141.75,17.46-138.06-52.74,0-43.55,32.59-77.03,75.55-77.03Zm-41.48,65.48h79.4c-4.62-46.08-74.19-43.53-79.4,0Z"/><path class="cls-2" d="M3946.74,1670.04h93.33v34.96h-93.33v-34.96Z"/><path class="cls-2" d="M4079.77,1551.23h88.88c90.05-1.59,90.04,147.96,0,146.36h-53.92v66.96h-34.96v-213.32Zm34.96,34.96v76.44c31.86-1.03,88.67,10.34,87.7-38.22,1.18-48.91-55.89-37.05-87.7-38.22Z"/><path class="cls-2" d="M4322.42,1613.45c18.67,0,35.85,9.78,45.63,21.33v-18.37h34.96v148.14h-34.96v-18.96c-9.78,12.15-26.96,21.92-45.63,21.92-96.53,.21-96.51-154.29,0-154.07Zm-38.52,77.03c1.1,55.26,83.05,55.25,84.14,0-1.1-55.26-83.05-55.25-84.14,0Z"/><path class="cls-2" d="M4437.38,1764.55v-148.14h34.96v16.89c10.07-11.85,25.48-19.85,44.44-19.85v33.18c-64.62-3.76-39.92,79.24-44.44,117.92h-34.96Z"/><path class="cls-2" d="M4556.78,1548.27c27.28,.22,26.99,41.63,0,41.77-26.99-.15-27.28-41.56,0-41.77Zm-17.48,216.28v-148.14h34.96v148.14h-34.96Z"/><path class="cls-2" d="M4618.11,1718.33c14.05,15.33,64.63,28.63,71.11,3.26-6.18-30.09-87.09-13.01-86.81-64.89-.47-50.91,88.22-53.62,117.03-21.63l-19.26,23.7c-35.2-31.18-102.76-.71-31.7,13.33,74.69,8.4,75.09,94.49-6.52,95.4-24.59,0-46.81-8.89-64.59-25.19l20.74-24Z"/></g></svg>