<?xml version="1.0" encoding="UTF-8"?><svg id="Calque_1" xmlns="http://www.w3.org/2000/svg" viewBox="0 0 500 150"><defs><style>.cls-1,.cls-2{fill:#fff;}.cls-2,.cls-3{stroke:#fff;stroke-miterlimit:10;stroke-width:.5px;}.cls-3{fill:none;}</style></defs><path class="cls-3" d="M144.17,120.13c-5.92-.31-24.78-2.12-26.66,4.82,.09,6.2,10.66,7.58,15.43,8.8,5.2,1.92,54.26,6.28,44.88-6.38-8.21-5.1-18.53-5.67-27.89-7.24"/><polygon class="cls-3" points="33.07 28.62 33.07 126.91 62.06 132.12 62.06 21.59 33.07 28.62"/><polygon class="cls-3" points="62.06 21.59 90.37 30.65 88.78 32.69 62.06 24.31 62.06 21.59"/><polygon class="cls-3" points="35.33 48.77 35.33 55.57 57.53 52.17 57.53 44.02 35.33 48.77"/><polygon class="cls-3" points="35.38 59.89 35.12 66.68 57.43 64.15 57.75 56 35.38 59.89"/><line class="cls-3" x1="63.43" y1="24.74" x2="63.43" y2="128.89"/><polygon class="cls-3" points="62.06 129.4 96.26 116.49 96.26 110.6 99.2 110.6 99.2 117.63 62.06 132.12 62.06 129.4"/><polyline class="cls-3" points="144.17 111.57 149.94 112.41 149.94 120.12 144.17 120.12 144.17 111.57"/><path class="cls-3" d="M84.74,44.11c-.54,8.61,0,17.35-.33,25.99-.07,7.47-.11,14.95-.11,22.42,0,5.78,.79,10.41,7.34,11.39,8.55,1.25,110.88,16.15,110.88,16.15,0,0,10.81,1.35,10.92-10.43,.35-29.78-.54-59.58,.35-89.35,.13-3.64-.69-7.7-3.64-9.83-7.61-5.24-26.8,3.21-36.1,4.42-25.15,5.83-50.23,11.96-75.31,18.12-6.19,1.07-13.38,3.9-14.01,11.12Z"/><path class="cls-3" d="M90.02,46.4c-.48,7.64,0,15.39-.29,23.05-.06,6.63-.1,13.26-.1,19.89,0,5.12,.7,9.24,6.51,10.1,7.58,1.1,98.35,14.33,98.35,14.33,0,0,9.59,1.2,9.68-9.25,.31-26.42-.48-52.85,.31-79.26,.11-3.23-.61-6.83-3.23-8.72-6.75-4.65-23.78,2.84-32.02,3.92-22.31,5.17-44.56,10.61-66.8,16.07-5.49,.95-11.87,3.46-12.43,9.86Z"/><g><path class="cls-3" d="M146.81,44.99c-24.69,.28-30.7,39.11-3.57,40.75"/><path class="cls-3" d="M143.24,85.74c24.68-.26,30.7-39.1,3.57-40.75-10.64,9.06-13.48,30.44-3.57,40.75Z"/><path class="cls-3" d="M146.81,44.99c10.62,10.4,7.62,31.74-3.57,40.75"/><line class="cls-3" x1="125.13" y1="65.64" x2="164.87" y2="65.64"/><path class="cls-3" d="M130.49,80.33c6.43-6,20.36-6.55,26.45,0"/><path class="cls-3" d="M159.6,49.93c-6.43,6-20.36,6.55-26.45,0"/></g><g><path class="cls-1" d="M158.36,55.66c-1.1,0-2.29,.03-3.4,.03h-.13c-.1,0-.19,0-.28,0-.36,0-.67-.03-.92-.03-.65,0-.99,.17-1.15,1.39-.08,.89-.49,2.57,.79,2.61h.84c-.33,3.88-.69,7.65-.86,11.53-.98,.07-1.86-.03-1.98,1.07-.08,.51-.42,2.88,.22,2.88,.02,0,.03,0,.05,0,.18,0,.37,0,.57,0,1.79,0,4.22-.03,6.01-.03,.2,0,.38,0,.56,0,1.06-.25,.96-3.08,.68-3.83-.17-.18-.63-.22-1.07-.22-.26,0-.51,.01-.69,.01h-.02c.37-3.31,.85-8.22,1.21-11.53,.04,0,.08,0,.11,0,.15,0,.31,.01,.47,.01,.4,0,.79-.07,.92-.55,.21-.53,.38-1.72,.27-2.54-.04-.31-.11-.79-.45-.81h-1.76Z"/><path class="cls-1" d="M167.28,55.46c-1.07,0-2.15,.05-3.17,.1-.69,.12-1.45,.33-1.56,1.07-.21,1.29-.32,3.03-.44,4.53-.2,2.88-.43,5.87-.67,8.68-.1,1.55-.28,3.2-.22,4.81,.04,.84,1.49,.61,2.25,.68,.88-.11,2.14,0,2.31-1.18,.36-1.42,.36-3.13,.51-4.54,.13,0,.25,0,.37,0,4.69,0,8.3-2.36,8.61-7.41,.65-5.84-3.6-6.76-8-6.76h0Zm.14,10.21c-.3,0-.59-.02-.89-.06,.14-1.87,.21-3.73,.37-5.6,.09-.22,.41-.29,.77-.29,.5,0,1.1,.13,1.36,.19,2.23,.5,1.97,3.9,.62,4.99-.64,.59-1.43,.77-2.24,.77h0Z"/></g><g><path class="cls-2" d="M231.38,72.65h-3.36v-20.5h3.36v20.5Z"/><path class="cls-2" d="M235.02,72.65v-14.23h3.36v1.54c1.05-1.11,2.59-1.82,4.27-1.82,7.42-.17,5.31,9.76,5.58,14.52h-3.36v-7.86c0-2.39-1.25-3.5-3.05-3.5-1.94,0-3.44,1.42-3.44,3.67v7.69h-3.36Z"/><path class="cls-2" d="M250.34,61.78v-3.36h2.39c-.36-4.96,2.55-6.91,6.86-6.55v3.25c-2.38-.16-3.69,.41-3.5,3.3h3.5v3.36h-3.5v10.87h-3.36v-10.87h-2.39Z"/><path class="cls-2" d="M275.16,65.53c-.17,9.72-14.62,9.73-14.8,0,.05-9.68,14.77-9.68,14.8,0Zm-7.4,4.04c5.31-.11,5.31-7.98,0-8.08-5.31,.11-5.31,7.98,0,8.08Z"/><path class="cls-2" d="M277.61,72.65v-14.23h3.36v1.62c.97-1.14,2.45-1.91,4.27-1.91v3.19c-6.21-.36-3.84,7.61-4.27,11.33h-3.36Z"/><path class="cls-2" d="M287.4,58.42h3.36v1.54c2.27-2.65,7.52-2.36,9.05,.85,3.04-4.61,10.97-2.97,10.65,3.27v8.57h-3.36v-7.86c0-2.39-1.25-3.5-3.05-3.5-1.94,0-3.44,1.42-3.44,3.62v7.74h-3.36v-7.86c0-2.39-1.25-3.5-3.05-3.5-1.94,0-3.44,1.42-3.44,3.67v7.69h-3.36v-14.23Z"/><path class="cls-2" d="M319.96,58.13c1.79,0,3.44,.94,4.38,2.05v-1.76h3.36v14.23h-3.36v-1.82c-.94,1.17-2.59,2.11-4.38,2.11-9.27,.02-9.27-14.82,0-14.8Zm-3.7,7.4c.11,5.31,7.98,5.31,8.08,0-.11-5.31-7.98-5.31-8.08,0Z"/><path class="cls-2" d="M331.12,58.42c1.87,.04,1.1-2.7,1.25-3.81h3.36v3.81h3.62v3.36h-3.62v5.1c-.19,3.38,1.46,2.96,3.62,2.59v3.19c-8.58,1.92-6.82-5.03-6.97-10.87h-2.62v-3.36h1.37Z"/><path class="cls-2" d="M343.7,51.87c2.62,.02,2.59,4,0,4.01-2.59-.01-2.62-3.99,0-4.01Zm-1.68,20.78v-14.23h3.36v14.23h-3.36Z"/><path class="cls-2" d="M354.89,58.13c1.79,0,3.44,.94,4.38,2.11v-1.82h3.36v20.5h-3.36v-8.06c-.94,1.14-2.59,2.08-4.38,2.08-9.28,.02-9.27-14.84,0-14.8Zm-3.7,7.4c.11,5.31,7.98,5.31,8.08,0-.11-5.31-7.98-5.31-8.08,0Z"/><path class="cls-2" d="M369.29,58.42v7.86c0,2.36,1.25,3.5,3.05,3.5,5.18,.04,3.02-8.18,3.44-11.36h3.36v14.23h-3.36v-1.54c-1.05,1.11-2.59,1.82-4.27,1.82-7.42,.17-5.31-9.76-5.58-14.52h3.36Z"/><path class="cls-2" d="M388.85,58.13c4.72-.12,7.54,4.31,6.66,8.91h-10.59c.8,3.12,5.73,3.78,7.8,1.42l2.13,2.13c-4.22,4.81-13.62,1.68-13.26-5.07,0-4.18,3.13-7.4,7.26-7.4Zm-3.99,6.29h7.63c-.44-4.43-7.13-4.18-7.63,0Z"/><path class="cls-2" d="M398.27,63.57h8.97v3.36h-8.97v-3.36Z"/><path class="cls-2" d="M411.05,52.15h8.54c8.65-.15,8.65,14.22,0,14.06h-5.18v6.43h-3.36v-20.5Zm3.36,3.36v7.34c3.06-.1,8.52,.99,8.43-3.67,.11-4.7-5.37-3.56-8.43-3.67Z"/><path class="cls-2" d="M434.36,58.13c1.79,0,3.44,.94,4.38,2.05v-1.76h3.36v14.23h-3.36v-1.82c-.94,1.17-2.59,2.11-4.38,2.11-9.27,.02-9.27-14.82,0-14.8Zm-3.7,7.4c.11,5.31,7.98,5.31,8.08,0-.11-5.31-7.98-5.31-8.08,0Z"/><path class="cls-2" d="M445.41,72.65v-14.23h3.36v1.62c.97-1.14,2.45-1.91,4.27-1.91v3.19c-6.21-.36-3.84,7.61-4.27,11.33h-3.36Z"/><path class="cls-2" d="M456.88,51.87c2.62,.02,2.59,4,0,4.01-2.59-.01-2.62-3.99,0-4.01Zm-1.68,20.78v-14.23h3.36v14.23h-3.36Z"/><path class="cls-2" d="M462.77,68.21c1.35,1.47,6.21,2.75,6.83,.31-.59-2.89-8.37-1.25-8.34-6.23-.05-4.89,8.48-5.15,11.24-2.08l-1.85,2.28c-3.38-3-9.87-.07-3.05,1.28,7.18,.81,7.21,9.08-.63,9.17-2.36,0-4.5-.85-6.21-2.42l1.99-2.31Z"/></g></svg>